<mxfile host="app.diagrams.net" modified="2023-11-16T03:08:26.065Z" agent="5.0 (Windows NT 10.0; Win64; x64) AppleWebKit/537.36 (KHTML, like Gecko) Chrome/119.0.0.0 Safari/537.36" etag="VKqce1PK1Kd5Kdw4tDnt" version="21.0.2" type="github">
  <diagram name="หน้า-1" id="hpq9vkLZiZE30513-RUs">
    <mxGraphModel dx="1235" dy="614" grid="1" gridSize="10" guides="1" tooltips="1" connect="1" arrows="1" fold="1" page="1" pageScale="1" pageWidth="827" pageHeight="1169" math="0" shadow="0">
      <root>
        <mxCell id="0" />
        <mxCell id="1" parent="0" />
        <mxCell id="U4RzfAa5aK-l0mikcohs-3" style="edgeStyle=orthogonalEdgeStyle;rounded=0;orthogonalLoop=1;jettySize=auto;html=1;exitX=0.5;exitY=1;exitDx=0;exitDy=0;entryX=0.5;entryY=0;entryDx=0;entryDy=0;" edge="1" parent="1" source="U4RzfAa5aK-l0mikcohs-1" target="U4RzfAa5aK-l0mikcohs-2">
          <mxGeometry relative="1" as="geometry" />
        </mxCell>
        <mxCell id="U4RzfAa5aK-l0mikcohs-1" value="Start" style="rounded=1;whiteSpace=wrap;html=1;" vertex="1" parent="1">
          <mxGeometry x="379" y="20" width="70" height="30" as="geometry" />
        </mxCell>
        <mxCell id="U4RzfAa5aK-l0mikcohs-5" style="edgeStyle=orthogonalEdgeStyle;rounded=0;orthogonalLoop=1;jettySize=auto;html=1;exitX=0.5;exitY=1;exitDx=0;exitDy=0;entryX=0.5;entryY=0;entryDx=0;entryDy=0;entryPerimeter=0;" edge="1" parent="1" source="U4RzfAa5aK-l0mikcohs-2" target="U4RzfAa5aK-l0mikcohs-4">
          <mxGeometry relative="1" as="geometry" />
        </mxCell>
        <mxCell id="U4RzfAa5aK-l0mikcohs-2" value="float base;&lt;br&gt;float height;&amp;nbsp;" style="rounded=0;whiteSpace=wrap;html=1;" vertex="1" parent="1">
          <mxGeometry x="354" y="70" width="116" height="50" as="geometry" />
        </mxCell>
        <mxCell id="U4RzfAa5aK-l0mikcohs-10" value="" style="edgeStyle=orthogonalEdgeStyle;rounded=0;orthogonalLoop=1;jettySize=auto;html=1;" edge="1" parent="1" source="U4RzfAa5aK-l0mikcohs-4" target="U4RzfAa5aK-l0mikcohs-6">
          <mxGeometry relative="1" as="geometry" />
        </mxCell>
        <mxCell id="U4RzfAa5aK-l0mikcohs-4" value="Input valuee of base :" style="strokeWidth=2;html=1;shape=mxgraph.flowchart.display;whiteSpace=wrap;" vertex="1" parent="1">
          <mxGeometry x="338" y="150" width="148" height="50" as="geometry" />
        </mxCell>
        <mxCell id="U4RzfAa5aK-l0mikcohs-12" style="edgeStyle=orthogonalEdgeStyle;rounded=0;orthogonalLoop=1;jettySize=auto;html=1;exitX=0.5;exitY=1;exitDx=0;exitDy=0;entryX=0.5;entryY=0;entryDx=0;entryDy=0;entryPerimeter=0;" edge="1" parent="1" source="U4RzfAa5aK-l0mikcohs-6" target="U4RzfAa5aK-l0mikcohs-11">
          <mxGeometry relative="1" as="geometry" />
        </mxCell>
        <mxCell id="U4RzfAa5aK-l0mikcohs-6" value="&lt;br&gt;base = ค่าของฐาน" style="html=1;strokeWidth=2;shape=manualInput;whiteSpace=wrap;rounded=1;size=26;arcSize=11;" vertex="1" parent="1">
          <mxGeometry x="560" y="140" width="170" height="70" as="geometry" />
        </mxCell>
        <mxCell id="U4RzfAa5aK-l0mikcohs-14" style="edgeStyle=orthogonalEdgeStyle;rounded=0;orthogonalLoop=1;jettySize=auto;html=1;exitX=1;exitY=0.5;exitDx=0;exitDy=0;exitPerimeter=0;" edge="1" parent="1" source="U4RzfAa5aK-l0mikcohs-11" target="U4RzfAa5aK-l0mikcohs-13">
          <mxGeometry relative="1" as="geometry" />
        </mxCell>
        <mxCell id="U4RzfAa5aK-l0mikcohs-11" value="Input valuee of heeight :" style="strokeWidth=2;html=1;shape=mxgraph.flowchart.display;whiteSpace=wrap;" vertex="1" parent="1">
          <mxGeometry x="339" y="250" width="148" height="50" as="geometry" />
        </mxCell>
        <mxCell id="U4RzfAa5aK-l0mikcohs-17" style="edgeStyle=orthogonalEdgeStyle;rounded=0;orthogonalLoop=1;jettySize=auto;html=1;exitX=0.5;exitY=1;exitDx=0;exitDy=0;entryX=0.5;entryY=0;entryDx=0;entryDy=0;" edge="1" parent="1" source="U4RzfAa5aK-l0mikcohs-13" target="U4RzfAa5aK-l0mikcohs-15">
          <mxGeometry relative="1" as="geometry" />
        </mxCell>
        <mxCell id="U4RzfAa5aK-l0mikcohs-13" value="&lt;br&gt;height = ค่าความสูง" style="html=1;strokeWidth=2;shape=manualInput;whiteSpace=wrap;rounded=1;size=26;arcSize=11;" vertex="1" parent="1">
          <mxGeometry x="550" y="240" width="170" height="70" as="geometry" />
        </mxCell>
        <mxCell id="U4RzfAa5aK-l0mikcohs-19" style="edgeStyle=orthogonalEdgeStyle;rounded=0;orthogonalLoop=1;jettySize=auto;html=1;exitX=0.5;exitY=1;exitDx=0;exitDy=0;entryX=0.5;entryY=0;entryDx=0;entryDy=0;entryPerimeter=0;" edge="1" parent="1" source="U4RzfAa5aK-l0mikcohs-15" target="U4RzfAa5aK-l0mikcohs-18">
          <mxGeometry relative="1" as="geometry" />
        </mxCell>
        <mxCell id="U4RzfAa5aK-l0mikcohs-15" value="0.5 * base * height" style="rounded=0;whiteSpace=wrap;html=1;" vertex="1" parent="1">
          <mxGeometry x="354" y="350" width="116" height="50" as="geometry" />
        </mxCell>
        <mxCell id="U4RzfAa5aK-l0mikcohs-21" style="edgeStyle=orthogonalEdgeStyle;rounded=0;orthogonalLoop=1;jettySize=auto;html=1;exitX=0.5;exitY=1;exitDx=0;exitDy=0;exitPerimeter=0;entryX=0.5;entryY=0;entryDx=0;entryDy=0;" edge="1" parent="1" source="U4RzfAa5aK-l0mikcohs-18" target="U4RzfAa5aK-l0mikcohs-20">
          <mxGeometry relative="1" as="geometry" />
        </mxCell>
        <mxCell id="U4RzfAa5aK-l0mikcohs-18" value="Area of a Triangle is %2f" style="strokeWidth=2;html=1;shape=mxgraph.flowchart.display;whiteSpace=wrap;" vertex="1" parent="1">
          <mxGeometry x="338" y="430" width="148" height="50" as="geometry" />
        </mxCell>
        <mxCell id="U4RzfAa5aK-l0mikcohs-20" value="End" style="rounded=1;whiteSpace=wrap;html=1;" vertex="1" parent="1">
          <mxGeometry x="377" y="510" width="70" height="30" as="geometry" />
        </mxCell>
      </root>
    </mxGraphModel>
  </diagram>
</mxfile>
